<?xml version="1.0" encoding="UTF-8"?>
<svg version="1.1" viewBox="0 0 325 100" xmlns="http://www.w3.org/2000/svg">
<defs>
<linearGradient id="a" x1="50%" x2="50%" y2="100%">
<stop stop-color="#baddf2" offset=".45"/>
<stop stop-color="#f6cdbc" offset="1"/>
</linearGradient>
</defs>
<rect width="100%" height="100%" fill="hsl(292, 0%, 100%)"/>
<g fill="url(#a)">
<rect width="100%" height="40" fill="#baddf2"/>
<rect width="7.69%" height="94.451" rx="15"/>
<rect x="50" width="7.69%" height="93.799" rx="15"/>
<rect x="100" width="7.69%" height="78.227" rx="15"/>
<rect x="150" width="7.69%" height="95.647" rx="15"/>
<rect x="200" width="7.69%" height="80.427" rx="15"/>
<rect x="250" width="7.69%" height="71.769" rx="15"/>
<rect x="300" width="7.69%" height="92.081" rx="15"/>
</g>
<g fill="hsl(292, 0%, 100%)">
<rect x="25" y="18.785" width="7.69%" height="60" rx="15"/>
<rect x="75" y="21.608" width="7.69%" height="60" rx="15"/>
<rect x="125" y="15.647" width="7.69%" height="60" rx="15"/>
<rect x="175" y="17.162" width="7.69%" height="60" rx="15"/>
<rect x="225" y="13.045" width="7.69%" height="60" rx="15"/>
<rect x="275" y="6.8303" width="7.69%" height="60" rx="15"/>
</g>
</svg>
